Coordinates
version=1
nRows=11
nColumns=40
inDegrees=yes

Units are S.I. units (second, meters, Newtons, ...)
Angles are in degrees.

endheader
time	pelvis_tilt	pelvis_list	pelvis_rotation	pelvis_tx	pelvis_ty	pelvis_tz	hip_flexion_r	hip_adduction_r	hip_rotation_r	knee_angle_r	knee_angle_r_beta	ankle_angle_r	subtalar_angle_r	mtp_angle_r	hip_flexion_l	hip_adduction_l	hip_rotation_l	knee_angle_l	knee_angle_l_beta	ankle_angle_l	subtalar_angle_l	mtp_angle_l	lumbar_extension	lumbar_bending	lumbar_rotation	arm_flex_r	arm_add_r	arm_rot_r	elbow_flex_r	pro_sup_r	wrist_flex_r	wrist_dev_r	arm_flex_l	arm_add_l	arm_rot_l	elbow_flex_l	pro_sup_l	wrist_flex_l	wrist_dev_l
      1.49000000	      1.63615624	      1.41454288	      0.32575428	      0.04815910	      0.89988084	     -1.04177973	     14.93742079	     -4.40810790	     -5.14060811	    -61.57223085	     -1.07463816	     -5.29247290	    -15.62122226	      6.69671695	      3.12811054	     -4.48467793	     11.07749078	    -12.14772914	     -0.21201787	      4.15353935	     -6.38273792	     -5.92824085	     -8.48882375	     -0.13160107	     -2.63968332	      7.15285297	     -8.90958073	     24.71210359	     17.39973573	     89.95437384	      0.00000000	      0.00000000	      4.84991106	     10.21442422	    -18.83137460	     16.45690738	     89.95437384	      0.00000000	      0.00000000
      1.50000000	      1.63880047	      1.21557682	      0.52635475	      0.05743298	      0.90016248	     -1.04281958	     16.15610160	     -3.95351097	     -5.15141707	    -61.14170662	     -1.06712409	     -4.25699886	    -15.46072260	      6.65042528	      2.34348839	     -4.35953934	     10.76741312	    -11.93360324	     -0.20828067	      4.62329123	     -6.61883048	     -5.91712485	     -8.38622277	      0.19981174	     -2.97770523	      6.76655061	     -8.93918245	     24.46343328	     17.22357326	     89.95437384	      0.00000000	      0.00000000	      5.72637790	     10.43748660	    -18.86762508	     16.95506150	     89.95437384	      0.00000000	      0.00000000
      1.51000000	      2.10785591	      0.78015458	      0.90762795	      0.06700226	      0.90117656	     -1.04375321	     16.59650356	     -3.27298473	     -5.46244938	    -60.20265777	     -1.05073460	     -2.84953022	    -14.75993637	      7.03298490	      1.06858622	     -3.88998648	     10.51324435	    -11.82685963	     -0.20641764	      5.10598568	     -7.10714257	     -5.74356244	     -8.80805620	      0.79458964	     -3.39933777	      6.34640757	     -8.83661053	     22.91319871	     17.11284144	     89.95437384	      0.00000000	      0.00000000	      6.60198717	     10.74632685	    -19.07776417	     17.76266003	     89.95437384	      0.00000000	      0.00000000
      1.52000000	      2.24302021	      0.63569704	      1.05263542	      0.07638547	      0.90149755	     -1.04454759	     17.54805222	     -2.92142799	     -5.58424293	    -59.28450328	     -1.03470978	     -1.92370967	    -14.29972877	      7.57898978	      0.16624585	     -3.71680644	     10.79176373	    -11.67920523	     -0.20384059	      5.31424940	     -7.96889924	     -5.46438568	     -8.85884738	      1.03769434	     -3.61686545	      5.93874462	     -8.71656799	     21.52456434	     16.89568650	     89.95437384	      0.00000000	      0.00000000	      7.47446848	     11.02041919	    -19.13220214	     18.42833192	     89.95437384	      0.00000000	      0.00000000
      1.53000000	      2.04846004	      0.59540389	      1.19092474	      0.08539985	      0.90110772	     -1.04546100	     18.92632973	     -2.78291061	     -5.80748577	    -58.29587359	     -1.01745493	     -1.40338035	    -13.97568939	      7.45254764	     -0.26050222	     -3.72109685	     10.78394361	    -11.68975750	     -0.20402476	      5.60520458	     -7.93346315	     -5.41952447	     -8.53475861	      1.17881835	     -3.84624714	      5.48705523	     -8.82232130	     21.39641216	     16.90030162	     89.95437384	      0.00000000	      0.00000000	      8.30539921	     11.28021723	    -18.94675856	     19.15922884	     89.95437384	      0.00000000	      0.00000000
      1.54000000	      2.27571126	      0.20545233	      1.51059987	      0.09461317	      0.90134497	     -1.04620069	     19.55028541	     -2.20248400	     -6.26905584	    -56.80063417	     -0.99135808	     -0.21728821	    -13.53879117	      7.38879579	     -1.21599073	     -3.30229813	     10.45658378	    -11.58878044	     -0.20226237	      6.18903215	     -8.28294132	     -5.38052181	     -8.74021871	      1.70786403	     -4.23988602	      5.13595826	     -8.78982409	     20.40595022	     16.84202114	     89.95437384	      0.00000000	      0.00000000	      9.06838119	     11.52912028	    -18.35301790	     20.09597986	     89.95437384	      0.00000000	      0.00000000
      1.55000000	      2.33537640	      0.08593773	      1.74609334	      0.10371918	      0.90115720	     -1.04708500	     20.38800012	     -2.01063817	     -6.65006454	    -55.26808903	     -0.96461012	      0.49356633	    -13.03779413	      7.27133889	     -1.98042501	     -3.18249125	     10.46544395	    -11.48957585	     -0.20053093	      6.51595040	     -8.60547036	     -5.33007446	     -8.75675931	      1.93924482	     -4.54124410	      4.76494527	     -8.77637105	     19.64216423	     16.76138470	     89.95437384	      0.00000000	      0.00000000	      9.86028658	     11.74265503	    -17.74745338	     20.95436304	     89.95437384	      0.00000000	      0.00000000
      1.56000000	      2.46038688	     -0.05032706	      1.97552156	      0.11273220	      0.90093576	     -1.04783284	     21.07141761	     -1.82788196	     -7.15625551	    -53.46591030	     -0.93315617	      1.03567314	    -12.50334192	      7.14067296	     -2.80165507	     -3.03205490	     10.38999017	    -11.39260800	     -0.19883852	      6.94280720	     -8.90915695	     -5.34896493	     -8.86180502	      2.17535225	     -4.83918575	      4.43066794	     -8.77655311	     19.04932109	     16.73064544	     89.95437384	      0.00000000	      0.00000000	     10.65371159	     11.99961418	    -17.25141850	     21.83827531	     89.95437384	      0.00000000	      0.00000000
      1.57000000	      2.19238973	      0.14399093	      2.05691611	      0.12142986	      0.89989571	     -1.04859741	     22.30766511	     -2.04594505	     -7.51041641	    -51.81075370	     -0.90426824	      1.26638123	    -12.13006585	      7.03791200	     -3.09962999	     -3.29379751	     10.49570217	    -11.49061920	     -0.20054914	      7.16868503	     -8.81680812	     -5.31904967	     -8.56653481	      2.01715195	     -4.93149181	      4.01847779	     -8.85359151	     18.95713364	     16.76689097	     89.95437384	      0.00000000	      0.00000000	     11.51647873	     12.23982245	    -17.01696797	     22.62435350	     89.95437384	      0.00000000	      0.00000000
      1.58000000	      2.72662824	     -0.30110424	      2.53450411	      0.13108685	      0.90017471	     -1.04918974	     22.09906795	     -1.57816384	     -8.39485482	    -49.28191115	     -0.86013161	      1.77493103	    -11.38812858	      6.86837133	     -4.51172252	     -2.73889757	     10.22827478	    -11.21480191	     -0.19573522	      7.77724481	     -9.29187402	     -5.39792649	     -9.09033273	      2.59890233	     -5.49210180	      3.76105887	     -8.78801650	     18.43716601	     16.67864808	     89.95437384	      0.00000000	      0.00000000	     12.16149223	     12.50637570	    -16.28043461	     23.66117560	     89.95437384	      0.00000000	      0.00000000
      1.59000000	      3.04590322	     -0.34330611	      2.71766561	      0.14041996	      0.89991654	     -1.04985787	     22.26206561	     -1.57292337	     -9.10958811	    -46.90216437	     -0.81859719	      2.09186010	    -10.67050632	      6.59424838	     -5.69244425	     -2.66482558	     10.38204461	    -10.86430267	     -0.18961785	      7.86226897	     -9.82996366	     -5.46355144	     -9.43734139	      2.73152975	     -5.69376112	      3.46764798	     -8.78936825	     18.07804950	     16.61960425	     89.95437384	      0.00000000	      0.00000000	     12.94732513	     12.68662273	    -15.72495559	     24.51921263	     89.95437384	      0.00000000	      0.00000000
